<svg xmlns="http://www.w3.org/2000/svg" width="1024" height="1024" viewBox="0 0 1024 1024">
<rect x="100" y="100" width="824" height="824" rx="185" ry="185" fill="#171717"/>
<defs><mask id="m"><path d="M512,264 C525.7,427.7 589.5,497.1 740,512 C589.5,526.9 525.7,596.3 512,760 C498.3,596.3 434.5,526.9 284,512 C434.5,497.1 498.3,427.7 512,264 Z" fill="white"/><g transform="rotate(45 512 512) translate(512 512) scale(0.5) translate(-512 -512)"><path d="M512,264 C525.7,427.7 589.5,497.1 740,512 C589.5,526.9 525.7,596.3 512,760 C498.3,596.3 434.5,526.9 284,512 C434.5,497.1 498.3,427.7 512,264 Z" fill="black"/></g></mask></defs>
<rect width="1024" height="1024" fill="#efefef" mask="url(#m)"/>
</svg>
